PathFileType	4	(X/Y/Z)	7_coords_data.trc
DataRate	CameraRate	NumFrames	NumMarkers	Units	OrigDataRate	OrigDataStartFrame	OrigNumFrames
30.0	30.0	6	21	m	30.0	11	65
Frame#	Time	THUMB_TIP	THUMB_IP	THUMB_MCP	THUMB_CMC	INDEX_TIP	INDEX_DIP	INDEX_PIP	INDEX_MCP	MIDDLE_TIP	MIDDLE_DIP	MIDDLE_PIP	MIDDLE_MCP	RING_TIP	RING_DIP	RING_PIP	RING_MCP	PINKY_TIP	PINKY_DIP	PINKY_PIP	PINKY_MCP	WRIST
X1	Y1	Z1	X2	Y2	Z2	X3	Y3	Z3	X4	Y4	Z4	X5	Y5	Z5	X6	Y6	Z6	X7	Y7	Z7	X8	Y8	Z8	X9	Y9	Z9	X10	Y10	Z10	X11	Y11	Z11	X12	Y12	Z12	X13	Y13	Z13	X14	Y14	Z14	X15	Y15	Z15	X16	Y16	Z16	X17	Y17	Z17	X18	Y18	Z18	X19	Y19	Z19	X20	Y20	Z20	X21	Y21	Z21
10	0.3333333333333333	-0.044750400543212894	-0.08635230255126954	0.98289599609375	-0.03759189987182617	-0.0648240966796875	0.995573974609375	-0.04495920181274414	-0.04372980117797851	1.013239990234375	-0.04582070159912109	-0.012732500076293946	1.0298900146484375	-0.016571599960327147	-0.024243400573730468	0.8923189697265625	-0.02077989959716797	-0.02207729911804199	0.9148590087890625	-0.024412099838256835	-0.019489900588989258	0.9374390258789063	-0.0306525993347168	-0.0121181001663208	0.9729099731445312	-0.013106200218200683	0.024254100799560547	0.8852689819335937	-0.021996700286865234	0.022941999435424805	0.9078740234375	-0.028599300384521485	0.01879680061340332	0.9343939819335938	-0.02923870086669922	0.011048899650573731	0.9710759887695313	0.002215100049972534	0.058449901580810544	0.9092780151367188	-0.005516419887542725	0.05090140151977539	0.9295770263671875	-0.011372200012207031	0.04160490036010742	0.9511740112304687	-0.018620500564575194	0.02782659912109375	0.9806640014648438	0.01807430076599121	0.08327880096435547	0.9652139892578125	0.009570690155029296	0.06994249725341797	0.9758679809570312	0.001588420033454895	0.05831579971313477	0.984656005859375	-0.012618399620056153	0.04016780090332031	0.9967030029296875	-0.06136019897460938	0.018402799606323243	1.0426400146484376
11	0.36666666666666664	-0.0439718017578125	-0.08576899719238282	0.982177001953125	-0.03691080093383789	-0.06427290344238282	0.9949749755859375	-0.04427529907226563	-0.04324430084228516	1.012739990234375	-0.04520959854125976	-0.012319000244140624	1.0295400390625	-0.016095100402832033	-0.023408100128173827	0.8918300170898438	-0.02034000015258789	-0.021320199966430663	0.9143200073242187	-0.023997499465942384	-0.01877980041503906	0.9369569702148437	-0.030207500457763672	-0.011559499740600585	0.9724760131835938	-0.013015600204467773	0.025373199462890624	0.8848079833984375	-0.021779300689697266	0.023863399505615234	0.9075449829101563	-0.02824449920654297	0.019579900741577148	0.9339959716796875	-0.02878529930114746	0.011601099967956543	0.9707230224609374	0.0023101398944854732	0.05928630065917969	0.9088779907226563	-0.0052904200553894045	0.051610000610351564	0.9293280029296875	-0.011040399551391602	0.042226699829101565	0.9508729858398437	-0.018147300720214844	0.028359199523925783	0.9803469848632812	0.018432100296020507	0.08396769714355469	0.9647750244140625	0.009957300186157227	0.07051920318603516	0.9755	0.002070569992065429	0.05888600158691406	0.9842470092773438	-0.012056900024414062	0.04066410064697266	0.9963930053710938	-0.06072460174560547	0.018775199890136717	1.042469970703125
12	0.4	-0.042904098510742186	-0.08589040374755859	0.9819990234375	-0.0359192008972168	-0.06435140228271484	0.9948330078125	-0.04337900161743164	-0.04340019989013672	1.0125399780273439	-0.04454930114746094	-0.012406299591064453	1.029260009765625	-0.014140700340270996	-0.023661300659179686	0.8918070068359375	-0.01869059944152832	-0.02155850028991699	0.9143049926757812	-0.022631799697875977	-0.01899259948730469	0.9369249877929687	-0.029312799453735352	-0.011777700424194336	0.9723729858398438	-0.011473699569702149	0.02529280090332031	0.8846259765625	-0.020289199829101563	0.02374839973449707	0.9072860107421875	-0.02700699996948242	0.019437400817871094	0.9338300170898437	-0.02784550094604492	0.01148169994354248	0.9704429931640625	0.0035231599807739257	0.05886700057983398	0.9086329956054687	-0.0042559499740600585	0.0513036003112793	0.9291019897460937	-0.010130399703979493	0.04207009887695313	0.9506669921875	-0.017405399322509764	0.028292999267578126	0.980125	0.018907899856567382	0.08402749633789063	0.9647109985351563	0.01049020004272461	0.07062580108642579	0.9753079833984375	0.0026315500736236574	0.05895500183105469	0.9840280151367188	-0.01146399974822998	0.04072750091552734	0.9961259765625	-0.06017279815673828	0.018692100524902344	1.04197998046875
13	0.43333333333333335	-0.04145309829711914	-0.08646430206298829	0.9819920043945313	-0.03459510040283203	-0.06481620025634766	0.99477001953125	-0.04228200149536133	-0.043867298126220707	1.01247998046875	-0.043506599426269534	-0.012852299690246581	1.0290999755859376	-0.012569000244140625	-0.02427330017089844	0.8918259887695312	-0.017151100158691406	-0.02212150001525879	0.914280029296875	-0.021211599349975584	-0.019549800872802735	0.9368839721679687	-0.028125999450683593	-0.012307999610900879	0.9722559814453124	-0.010419099807739259	0.02480579948425293	0.8843759765625	-0.019189699172973633	0.023226299285888673	0.907135986328125	-0.025787200927734375	0.018886100769042968	0.9335819702148438	-0.026693199157714845	0.010937600135803223	0.9703839721679688	0.004664269924163819	0.05802880096435547	0.9084349975585938	-0.0031839599609375	0.050637798309326174	0.9289110107421875	-0.009149840354919433	0.04152019882202149	0.9505280151367187	-0.016358299255371092	0.02783259963989258	0.9800339965820313	0.019822099685668945	0.0836615982055664	0.9645020141601562	0.011315199851989746	0.0702593994140625	0.97514501953125	0.0034550199508666993	0.05851359939575195	0.9839329833984375	-0.010518099784851074	0.04027009963989258	0.9960460205078125	-0.05923300170898437	0.01819099998474121	1.0416500244140625
14	0.4666666666666667	-0.039367000579833986	-0.08714920043945312	0.982219970703125	-0.032835399627685544	-0.06540229797363281	0.995	-0.040828201293945314	-0.04436709976196289	1.0125599975585937	-0.042233898162841794	-0.013310700416564942	1.02902001953125	-0.01094029998779297	-0.02514780044555664	0.8919169921875	-0.015609299659729004	-0.022946500778198244	0.9142239990234375	-0.01976390075683594	-0.020295200347900392	0.9367849731445312	-0.026924999237060546	-0.0128927001953125	0.9722479858398437	-0.00927342987060547	0.02382699966430664	0.8840679931640625	-0.018070499420166017	0.022340599060058593	0.9068629760742187	-0.024803199768066407	0.018019399642944335	0.9334199829101563	-0.025755699157714845	0.010370400428771973	0.9702109985351562	0.005279759883880616	0.056885299682617185	0.907719970703125	-0.002608099937438965	0.049671501159667966	0.9282830200195312	-0.008528220176696777	0.040746200561523435	0.9500590209960937	-0.015510700225830077	0.027369899749755858	0.9797230224609375	0.020142499923706054	0.08332550048828125	0.9637979736328125	0.011793999671936036	0.07000759887695313	0.9745050048828126	0.0040300898551940915	0.058230499267578124	0.983427001953125	-0.009771100044250488	0.039915298461914064	0.995489990234375	-0.05836000061035156	0.017785499572753907	1.041469970703125
15	0.5	-0.038293701171875	-0.08725399780273438	0.9818820190429688	-0.0317952995300293	-0.06554039764404297	0.9947730102539063	-0.03983679962158203	-0.044569698333740235	1.0123300170898437	-0.04115890121459961	-0.013570400238037109	1.0288199462890626	-0.008957500457763673	-0.025055099487304687	0.891802001953125	-0.013861300468444825	-0.022944599151611327	0.9141710205078125	-0.018260000228881836	-0.02034309959411621	0.9367069702148437	-0.02568320083618164	-0.013162400245666504	0.9720560302734375	-0.007523709774017334	0.024051300048828127	0.8840859985351562	-0.016312299728393556	0.02240089988708496	0.9068590087890624	-0.023140199661254884	0.01795409965515137	0.9333049926757813	-0.024385000228881838	0.01017039966583252	0.9699650268554687	0.007203680038452148	0.05651330184936523	0.9078720092773438	-0.000776511013507843	0.04937099838256836	0.92835498046875	-0.0069684600830078125	0.04048529815673828	0.950135986328125	-0.014074000358581543	0.02710409927368164	0.9797760009765625	0.021765899658203126	0.08304750061035156	0.9641220092773437	0.013287400245666504	0.06971549987792969	0.974760986328125	0.005473450183868408	0.05791680145263672	0.9835780029296874	-0.008281499862670898	0.039577999114990235	0.9956630249023437	-0.05732939910888672	0.017422599792480467	1.0411700439453124
